<?xml version="1.0" encoding="UTF-8"?>
<svg width="400" height="220" viewBox="0 0 400 220" xmlns="http://www.w3.org/2000/svg">
  <!-- Background circle glow effect -->
  <defs>
    <linearGradient id="logoGlowGradient" x1="0%" y1="0%" x2="100%" y2="100%">
      <stop offset="0%" stop-color="#89CFF0" stop-opacity="0.3"/>
      <stop offset="100%" stop-color="#4A90E2" stop-opacity="0.1"/>
    </linearGradient>
    <radialGradient id="nameGlow" cx="50%" cy="50%" r="50%" fx="50%" fy="50%">
      <stop offset="0%" stop-color="#FFFFFF" stop-opacity="0.7"/>
      <stop offset="100%" stop-color="#F5C518" stop-opacity="0.5"/>
    </radialGradient>
    <linearGradient id="goldGradient" x1="0%" y1="0%" x2="0%" y2="100%">
      <stop offset="0%" stop-color="#FFFFFF"/>
      <stop offset="50%" stop-color="#F5D742"/>
      <stop offset="100%" stop-color="#F5C518"/>
    </linearGradient>
    <filter id="glow" x="-50%" y="-50%" width="200%" height="200%">
      <feGaussianBlur stdDeviation="4" result="coloredBlur"/>
      <feMerge>
        <feMergeNode in="coloredBlur"/>
        <feMergeNode in="SourceGraphic"/>
      </feMerge>
    </filter>
  </defs>
  
  <!-- Blue arc above logo -->
  <path d="M 200,60 A 120,120 0 0,1 320,180" stroke="#4A90E2" stroke-width="3" fill="none" opacity="0.8"/>
  <path d="M 200,60 A 115,115 0 0,1 315,175" stroke="#4A90E2" stroke-width="2" fill="none" opacity="0.7"/>
  <path d="M 200,60 A 110,110 0 0,1 310,170" stroke="#4A90E2" stroke-width="1" fill="none" opacity="0.6"/>
  
  <!-- Star/sparkle in the center top -->
  <g filter="url(#glow)">
    <path d="M 200,45 L 204,55 L 214,55 L 206,62 L 209,72 L 200,67 L 191,72 L 194,62 L 186,55 L 196,55 Z" fill="url(#goldGradient)"/>
    <!-- Star rays -->
    <line x1="200" y1="30" x2="200" y2="40" stroke="url(#goldGradient)" stroke-width="2"/>
    <line x1="185" y1="45" x2="175" y2="40" stroke="url(#goldGradient)" stroke-width="2"/>
    <line x1="215" y1="45" x2="225" y2="40" stroke="url(#goldGradient)" stroke-width="2"/>
    <line x1="215" y1="65" x2="225" y2="70" stroke="url(#goldGradient)" stroke-width="2"/>
    <line x1="185" y1="65" x2="175" y2="70" stroke="url(#goldGradient)" stroke-width="2"/>
  </g>
  
  <!-- LUME text -->
  <g filter="url(#glow)">
    <text x="80" y="120" font-family="serif" font-size="55" font-weight="bold" fill="url(#goldGradient)" stroke="#F5C518" stroke-width="1">LUME</text>
  </g>
  
  <!-- CREDIT text -->
  <text x="120" y="150" font-family="sans-serif" font-size="24" font-weight="bold" letter-spacing="5" fill="url(#goldGradient)">CREDIT</text>
  
  <!-- Divider line -->
  <line x1="100" y1="165" x2="300" y2="165" stroke="url(#goldGradient)" stroke-width="1"/>
  
  <!-- Tagline -->
  <text x="200" y="185" font-family="serif" font-size="14" text-anchor="middle" fill="url(#goldGradient)">ILLUMINATE YOUR CREDIT</text>
  
  <!-- Diamond shape at bottom -->
  <rect x="195" y="195" width="10" height="10" transform="rotate(45 200 200)" fill="url(#goldGradient)" filter="url(#glow)"/>
</svg>